<svg width="252" height="190" viewBox="0 0 252 190" fill="none" xmlns="http://www.w3.org/2000/svg">
<g clip-path="url(#clip0_127_1701)">
<path fill-rule="evenodd" clip-rule="evenodd" d="M134.314 7.42139C122.017 7.42139 112.049 17.3896 112.049 29.6861C112.049 41.9826 122.017 51.9508 134.314 51.9508C134.856 51.9508 135.394 51.9312 135.926 51.8932C135.884 51.6762 135.862 51.4528 135.862 51.2251C135.862 49.2715 137.46 47.6732 139.414 47.6732H140.18C140.18 43.7498 143.36 40.5692 147.284 40.5692C149.278 40.5692 151.08 41.3909 152.37 42.7144C155.018 39.0514 156.578 34.5511 156.578 29.6862C156.578 17.3897 146.61 7.42139 134.314 7.42139Z" fill="#12CDD9"/>
<path fill-rule="evenodd" clip-rule="evenodd" d="M112.049 29.6862C112.049 17.3897 122.017 7.42148 134.313 7.42148C146.61 7.42148 156.578 17.3897 156.578 29.6862C156.578 34.551 155.018 39.0515 152.37 42.7142C152.754 43.1081 153.093 43.5464 153.378 44.0208C153.767 43.9135 154.177 43.8559 154.601 43.8559C155.875 43.8559 157.028 44.3753 157.859 45.2141C160.802 40.7607 162.515 35.4238 162.515 29.6863C162.515 14.1108 149.889 1.48438 134.313 1.48438C126.302 1.48438 119.072 4.82453 113.938 10.1881C111.591 12.6391 109.683 15.5128 108.338 18.6834C106.905 22.0642 106.111 25.7826 106.111 29.6863C106.111 35.8973 108.119 41.6394 111.521 46.2988C113.248 48.6643 115.335 50.7508 117.7 52.4781C122.36 55.8802 128.102 57.8882 134.313 57.8882C138.957 57.8882 143.338 56.7654 147.201 54.7772C144.598 54.7772 141.994 54.7772 139.39 54.7772C137.681 54.7772 136.242 53.5158 135.926 51.8933C135.394 51.9315 134.856 51.9509 134.313 51.9509C122.017 51.9509 112.049 41.9827 112.049 29.6862Z" fill="#FF8700"/>
<path fill-rule="evenodd" clip-rule="evenodd" d="M108.339 18.6833C109.684 15.5127 111.592 12.6391 113.938 10.188C113.165 8.74438 111.643 7.76206 109.891 7.76206C109.468 7.76206 109.058 7.81965 108.669 7.92696C107.427 5.85902 105.162 4.47534 102.574 4.47534C98.6508 4.47534 95.4704 7.65593 95.4704 11.5793H94.7043C92.7507 11.5793 91.1523 13.1776 91.1523 15.1312C91.1523 17.0619 92.7434 18.6832 94.681 18.6832H108.339V18.6833Z" fill="#12CDD9"/>
<path fill-rule="evenodd" clip-rule="evenodd" d="M147.284 40.5691C143.361 40.5691 140.18 43.7497 140.18 47.673H139.414C137.461 47.673 135.862 49.2713 135.862 51.225C135.862 51.4527 135.884 51.6762 135.927 51.8931C136.243 53.5154 137.682 54.7769 139.391 54.7769H147.202H159.176C161.013 54.7769 162.516 53.2741 162.516 51.4372C162.516 49.6002 161.013 48.0975 159.176 48.0975C159.093 46.9757 158.606 45.9662 157.86 45.2136C157.028 44.375 155.876 43.8557 154.601 43.8557C154.178 43.8557 153.768 43.9132 153.379 44.0206C153.094 43.5462 152.755 43.1079 152.371 42.7139C151.081 41.3908 149.279 40.5691 147.284 40.5691Z" fill="#12CDD9"/>
<path fill-rule="evenodd" clip-rule="evenodd" d="M111.881 58.5506L105.449 52.1182L90.9389 66.0237C89.0035 67.9591 89.0035 71.1258 90.9389 73.0612C92.8743 74.9966 96.041 74.9966 97.9764 73.0612L111.881 58.5506Z" fill="#FF8700"/>
<path fill-rule="evenodd" clip-rule="evenodd" d="M105.449 52.1181L111.882 58.5506L117.701 52.4779C115.335 50.7506 113.249 48.6641 111.522 46.2986L105.449 52.1181Z" fill="#FFC144"/>
<path d="M126.893 31.1707C127.713 31.1707 128.378 30.5061 128.378 29.6863C128.378 28.8665 127.713 28.2019 126.893 28.2019H126.892C126.072 28.2019 125.408 28.8665 125.408 29.6863C125.408 30.5061 126.073 31.1707 126.893 31.1707Z" fill="black"/>
<path d="M134.314 31.1707C135.134 31.1707 135.798 30.5061 135.798 29.6863C135.798 28.8665 135.134 28.2019 134.314 28.2019H134.313C133.493 28.2019 132.829 28.8665 132.829 29.6863C132.829 30.5061 133.494 31.1707 134.314 31.1707Z" fill="black"/>
<path d="M141.736 31.1707C142.556 31.1707 143.22 30.5061 143.22 29.6863C143.22 28.8665 142.556 28.2019 141.736 28.2019H141.735C140.915 28.2019 140.251 28.8665 140.251 29.6863C140.251 30.5061 140.916 31.1707 141.736 31.1707Z" fill="black"/>
<path d="M160.441 46.7817C160.271 46.185 160.01 45.6262 159.676 45.1202C162.508 40.4771 164 35.1627 164 29.6863C164 13.3173 150.683 0 134.314 0C126.509 0 119.398 3.02756 114.093 7.97003C112.976 6.90162 111.471 6.27791 109.891 6.27791C109.709 6.27791 109.528 6.28592 109.348 6.30196C107.733 4.23802 105.222 2.99119 102.574 2.99119C98.3319 2.99119 94.7985 6.08198 94.1079 10.1302C91.6105 10.4258 89.6674 12.556 89.6674 15.1314C89.6674 17.9084 91.9161 20.1677 94.6804 20.1677H106.192C105.178 23.1569 104.627 26.3585 104.627 29.6863C104.627 35.7491 106.454 41.3932 109.586 46.0972L89.9117 64.952C89.9042 64.9593 89.8966 64.9667 89.8892 64.9741C87.3703 67.4931 87.3703 71.5918 89.8892 74.1108C91.1486 75.3702 92.803 76 94.4574 76C96.1119 76 97.7663 75.3702 99.0257 74.1108C99.0331 74.1034 99.0406 74.0958 99.0478 74.0882L117.902 54.4129C122.606 57.5453 128.251 59.3724 134.314 59.3724C138.971 59.3724 143.424 58.326 147.556 56.2615H159.176C161.836 56.2615 164 54.0973 164 51.4374C164 49.2151 162.49 47.339 160.441 46.7817ZM94.6805 17.1989C93.5723 17.1989 92.6362 16.2521 92.6362 15.1313C92.6362 13.9912 93.5637 13.0636 94.7038 13.0636H95.4699C96.2897 13.0636 96.9542 12.3991 96.9542 11.5793C96.9542 8.48063 99.4752 5.95967 102.574 5.95967C104.566 5.95967 106.368 6.98073 107.396 8.69126C107.739 9.26257 108.421 9.53524 109.063 9.35786C109.331 9.28394 109.609 9.24639 109.891 9.24639C110.692 9.24639 111.455 9.56017 112.025 10.0984C110.158 12.2196 108.589 14.6083 107.383 17.1991H94.6805V17.1989ZM96.9165 72.0219C95.5542 73.3732 93.3464 73.3698 91.9884 72.0117C90.6303 70.6537 90.6269 68.4459 91.9782 67.0835L105.427 54.1952L109.805 58.5727L96.9165 72.0219ZM111.859 56.4287L107.571 52.1406L111.368 48.5013C112.606 50.0089 113.99 51.3926 115.498 52.6311L111.859 56.4287ZM107.596 29.6861C107.596 14.954 119.582 2.96848 134.314 2.96848C149.046 2.96848 161.031 14.954 161.031 29.6861C161.031 34.4219 159.793 39.022 157.436 43.0805C156.586 42.6277 155.62 42.3715 154.601 42.3715C154.531 42.3715 154.462 42.3727 154.393 42.3751C156.798 38.5809 158.063 34.2204 158.063 29.6863C158.063 16.5911 147.409 5.93726 134.314 5.93726C130.465 5.93726 126.641 6.88099 123.254 8.66647C122.529 9.04883 122.251 9.94654 122.633 10.6718C123.015 11.3969 123.913 11.6747 124.639 11.2927C127.6 9.73102 130.946 8.90574 134.314 8.90574C145.772 8.90574 155.094 18.2278 155.094 29.6861C155.094 33.5523 154.043 37.2737 152.043 40.532C150.651 39.606 148.996 39.085 147.284 39.085C143.042 39.085 139.509 42.1759 138.818 46.2239C136.571 46.4899 134.772 48.2416 134.435 50.4666C134.396 50.4666 134.356 50.4666 134.314 50.4666C122.855 50.4666 113.533 41.1445 113.533 29.6861C113.533 26.3178 114.359 22.9724 115.92 20.0117C116.302 19.2864 116.024 18.3887 115.299 18.0064C114.574 17.624 113.676 17.902 113.294 18.6271C111.508 22.0131 110.565 25.8373 110.565 29.6861C110.565 42.7814 121.218 53.4352 134.314 53.4352C134.533 53.4352 134.714 53.4346 134.885 53.4316C135.535 54.7654 136.755 55.77 138.223 56.1234C136.941 56.31 135.636 56.4038 134.314 56.4038C119.582 56.4038 107.596 44.4183 107.596 29.6861ZM159.176 53.2928H139.391C138.283 53.2928 137.346 52.346 137.346 51.2252C137.346 50.0851 138.274 49.1575 139.414 49.1575H140.18C141 49.1575 141.664 48.493 141.664 47.6732C141.664 44.5746 144.185 42.0536 147.284 42.0536C149.276 42.0536 151.079 43.0747 152.106 44.785C152.449 45.3565 153.131 45.6292 153.773 45.4516C154.041 45.3776 154.32 45.3402 154.601 45.3402C156.216 45.3402 157.576 46.5999 157.696 48.2082C157.754 48.983 158.399 49.582 159.176 49.582C160.199 49.582 161.031 50.4143 161.031 51.4374C161.031 52.4606 160.199 53.2928 159.176 53.2928Z" fill="black"/>
<path d="M118.57 15.427C119.39 15.427 120.054 14.7624 120.054 13.9426C120.054 13.1228 119.39 12.4583 118.57 12.4583H118.569C117.749 12.4583 117.085 13.1228 117.085 13.9426C117.085 14.7624 117.75 15.427 118.57 15.427Z" fill="black"/>
</g>
<path d="M52.797 99.8L49.085 111H46.877L44.109 102.712L41.293 111H39.069L35.357 99.8H37.517L40.301 108.312L43.197 99.8H45.117L47.949 108.36L50.813 99.8H52.797ZM61.8109 106.776C61.8109 106.915 61.8002 107.112 61.7789 107.368H55.0749C55.1922 107.997 55.4962 108.499 55.9869 108.872C56.4882 109.235 57.1069 109.416 57.8429 109.416C58.7815 109.416 59.5549 109.107 60.1629 108.488L61.2349 109.72C60.8509 110.179 60.3655 110.525 59.7789 110.76C59.1922 110.995 58.5309 111.112 57.7949 111.112C56.8562 111.112 56.0295 110.925 55.3149 110.552C54.6002 110.179 54.0455 109.661 53.6509 109C53.2669 108.328 53.0749 107.571 53.0749 106.728C53.0749 105.896 53.2615 105.149 53.6349 104.488C54.0189 103.816 54.5469 103.293 55.2189 102.92C55.8909 102.547 56.6482 102.36 57.4909 102.36C58.3229 102.36 59.0642 102.547 59.7149 102.92C60.3762 103.283 60.8882 103.8 61.2509 104.472C61.6242 105.133 61.8109 105.901 61.8109 106.776ZM57.4909 103.96C56.8509 103.96 56.3069 104.152 55.8589 104.536C55.4215 104.909 55.1549 105.411 55.0589 106.04H59.9069C59.8215 105.421 59.5602 104.92 59.1229 104.536C58.6855 104.152 58.1415 103.96 57.4909 103.96ZM75.8499 108.408H70.2499L69.1459 111H67.0019L72.0419 99.8H74.0899L79.1459 111H76.9699L75.8499 108.408ZM75.1619 106.776L73.0499 101.88L70.9539 106.776H75.1619ZM82.4023 103.704C82.9783 102.808 83.9916 102.36 85.4423 102.36V104.264C85.2716 104.232 85.1169 104.216 84.9783 104.216C84.1996 104.216 83.5916 104.445 83.1543 104.904C82.7169 105.352 82.4983 106.003 82.4983 106.856V111H80.4983V102.456H82.4023V103.704ZM95.2128 106.776C95.2128 106.915 95.2021 107.112 95.1808 107.368H88.4768C88.5941 107.997 88.8981 108.499 89.3888 108.872C89.8901 109.235 90.5088 109.416 91.2448 109.416C92.1834 109.416 92.9568 109.107 93.5648 108.488L94.6368 109.72C94.2528 110.179 93.7674 110.525 93.1808 110.76C92.5941 110.995 91.9328 111.112 91.1968 111.112C90.2581 111.112 89.4314 110.925 88.7168 110.552C88.0021 110.179 87.4474 109.661 87.0528 109C86.6688 108.328 86.4768 107.571 86.4768 106.728C86.4768 105.896 86.6634 105.149 87.0368 104.488C87.4208 103.816 87.9488 103.293 88.6208 102.92C89.2928 102.547 90.0501 102.36 90.8928 102.36C91.7248 102.36 92.4661 102.547 93.1168 102.92C93.7781 103.283 94.2901 103.8 94.6528 104.472C95.0261 105.133 95.2128 105.901 95.2128 106.776ZM90.8928 103.96C90.2528 103.96 89.7088 104.152 89.2608 104.536C88.8234 104.909 88.5568 105.411 88.4608 106.04H93.3088C93.2234 105.421 92.9621 104.92 92.5248 104.536C92.0874 104.152 91.5434 103.96 90.8928 103.96ZM105.46 111.16C104.596 111.16 103.758 111.037 102.948 110.792C102.148 110.547 101.513 110.221 101.044 109.816L101.764 108.2C102.222 108.563 102.782 108.861 103.444 109.096C104.116 109.32 104.788 109.432 105.46 109.432C106.292 109.432 106.91 109.299 107.316 109.032C107.732 108.765 107.94 108.413 107.94 107.976C107.94 107.656 107.822 107.395 107.588 107.192C107.364 106.979 107.076 106.813 106.724 106.696C106.372 106.579 105.892 106.445 105.284 106.296C104.43 106.093 103.737 105.891 103.204 105.688C102.681 105.485 102.228 105.171 101.844 104.744C101.47 104.307 101.284 103.72 101.284 102.984C101.284 102.365 101.449 101.805 101.78 101.304C102.121 100.792 102.628 100.387 103.3 100.088C103.982 99.7893 104.814 99.64 105.796 99.64C106.478 99.64 107.15 99.7253 107.812 99.896C108.473 100.067 109.044 100.312 109.524 100.632L108.868 102.248C108.377 101.96 107.865 101.741 107.332 101.592C106.798 101.443 106.281 101.368 105.78 101.368C104.958 101.368 104.345 101.507 103.94 101.784C103.545 102.061 103.348 102.429 103.348 102.888C103.348 103.208 103.46 103.469 103.684 103.672C103.918 103.875 104.212 104.035 104.564 104.152C104.916 104.269 105.396 104.403 106.004 104.552C106.836 104.744 107.518 104.947 108.052 105.16C108.585 105.363 109.038 105.677 109.412 106.104C109.796 106.531 109.988 107.107 109.988 107.832C109.988 108.451 109.817 109.011 109.476 109.512C109.145 110.013 108.638 110.413 107.956 110.712C107.273 111.011 106.441 111.16 105.46 111.16ZM115.818 111.112C114.954 111.112 114.176 110.925 113.482 110.552C112.789 110.179 112.245 109.661 111.85 109C111.466 108.328 111.274 107.571 111.274 106.728C111.274 105.885 111.466 105.133 111.85 104.472C112.245 103.811 112.789 103.293 113.482 102.92C114.176 102.547 114.954 102.36 115.818 102.36C116.693 102.36 117.477 102.547 118.17 102.92C118.864 103.293 119.402 103.811 119.786 104.472C120.181 105.133 120.378 105.885 120.378 106.728C120.378 107.571 120.181 108.328 119.786 109C119.402 109.661 118.864 110.179 118.17 110.552C117.477 110.925 116.693 111.112 115.818 111.112ZM115.818 109.4C116.554 109.4 117.162 109.155 117.642 108.664C118.122 108.173 118.362 107.528 118.362 106.728C118.362 105.928 118.122 105.283 117.642 104.792C117.162 104.301 116.554 104.056 115.818 104.056C115.082 104.056 114.474 104.301 113.994 104.792C113.525 105.283 113.29 105.928 113.29 106.728C113.29 107.528 113.525 108.173 113.994 108.664C114.474 109.155 115.082 109.4 115.818 109.4ZM124.315 103.704C124.891 102.808 125.904 102.36 127.355 102.36V104.264C127.184 104.232 127.029 104.216 126.891 104.216C126.112 104.216 125.504 104.445 125.067 104.904C124.629 105.352 124.411 106.003 124.411 106.856V111H122.411V102.456H124.315V103.704ZM131.075 103.704C131.651 102.808 132.665 102.36 134.115 102.36V104.264C133.945 104.232 133.79 104.216 133.651 104.216C132.873 104.216 132.265 104.445 131.827 104.904C131.39 105.352 131.171 106.003 131.171 106.856V111H129.171V102.456H131.075V103.704ZM144.245 102.456L140.245 111.688C139.871 112.616 139.418 113.267 138.885 113.64C138.351 114.024 137.706 114.216 136.949 114.216C136.522 114.216 136.101 114.147 135.685 114.008C135.269 113.869 134.927 113.677 134.661 113.432L135.461 111.96C135.653 112.141 135.877 112.285 136.133 112.392C136.399 112.499 136.666 112.552 136.933 112.552C137.285 112.552 137.573 112.461 137.797 112.28C138.031 112.099 138.245 111.795 138.437 111.368L138.581 111.032L134.853 102.456H136.933L139.621 108.776L142.325 102.456H144.245ZM145.739 108.456C146.113 108.456 146.422 108.579 146.667 108.824C146.913 109.069 147.035 109.389 147.035 109.784C147.035 109.955 147.009 110.136 146.955 110.328C146.913 110.509 146.817 110.787 146.667 111.16L145.851 113.416H144.555L145.195 110.968C144.961 110.872 144.774 110.723 144.635 110.52C144.507 110.307 144.443 110.061 144.443 109.784C144.443 109.389 144.566 109.069 144.811 108.824C145.057 108.579 145.366 108.456 145.739 108.456ZM170.211 99.8L166.499 111H164.291L161.523 102.712L158.707 111H156.483L152.771 99.8H154.931L157.715 108.312L160.611 99.8H162.531L165.363 108.36L168.227 99.8H170.211ZM179.225 106.776C179.225 106.915 179.215 107.112 179.193 107.368H172.489C172.607 107.997 172.911 108.499 173.401 108.872C173.903 109.235 174.521 109.416 175.257 109.416C176.196 109.416 176.969 109.107 177.577 108.488L178.649 109.72C178.265 110.179 177.78 110.525 177.193 110.76C176.607 110.995 175.945 111.112 175.209 111.112C174.271 111.112 173.444 110.925 172.729 110.552C172.015 110.179 171.46 109.661 171.065 109C170.681 108.328 170.489 107.571 170.489 106.728C170.489 105.896 170.676 105.149 171.049 104.488C171.433 103.816 171.961 103.293 172.633 102.92C173.305 102.547 174.063 102.36 174.905 102.36C175.737 102.36 176.479 102.547 177.129 102.92C177.791 103.283 178.303 103.8 178.665 104.472C179.039 105.133 179.225 105.901 179.225 106.776ZM174.905 103.96C174.265 103.96 173.721 104.152 173.273 104.536C172.836 104.909 172.569 105.411 172.473 106.04H177.321C177.236 105.421 176.975 104.92 176.537 104.536C176.1 104.152 175.556 103.96 174.905 103.96ZM191.184 111.16C190.054 111.16 189.03 110.915 188.112 110.424C187.206 109.923 186.491 109.235 185.968 108.36C185.456 107.485 185.2 106.499 185.2 105.4C185.2 104.301 185.462 103.315 185.984 102.44C186.507 101.565 187.222 100.883 188.128 100.392C189.046 99.8907 190.07 99.64 191.2 99.64C192.118 99.64 192.955 99.8 193.712 100.12C194.47 100.44 195.11 100.904 195.632 101.512L194.288 102.776C193.478 101.901 192.48 101.464 191.296 101.464C190.528 101.464 189.84 101.635 189.232 101.976C188.624 102.307 188.15 102.771 187.808 103.368C187.467 103.965 187.296 104.643 187.296 105.4C187.296 106.157 187.467 106.835 187.808 107.432C188.15 108.029 188.624 108.499 189.232 108.84C189.84 109.171 190.528 109.336 191.296 109.336C192.48 109.336 193.478 108.893 194.288 108.008L195.632 109.288C195.11 109.896 194.464 110.36 193.696 110.68C192.939 111 192.102 111.16 191.184 111.16ZM200.739 102.36C201.998 102.36 202.958 102.664 203.619 103.272C204.291 103.869 204.627 104.776 204.627 105.992V111H202.739V109.96C202.494 110.333 202.142 110.621 201.683 110.824C201.235 111.016 200.691 111.112 200.051 111.112C199.411 111.112 198.851 111.005 198.371 110.792C197.891 110.568 197.518 110.264 197.251 109.88C196.995 109.485 196.867 109.043 196.867 108.552C196.867 107.784 197.15 107.171 197.715 106.712C198.291 106.243 199.192 106.008 200.419 106.008H202.627V105.88C202.627 105.283 202.446 104.824 202.083 104.504C201.731 104.184 201.203 104.024 200.499 104.024C200.019 104.024 199.544 104.099 199.075 104.248C198.616 104.397 198.227 104.605 197.907 104.872L197.123 103.416C197.571 103.075 198.11 102.813 198.739 102.632C199.368 102.451 200.035 102.36 200.739 102.36ZM200.467 109.656C200.968 109.656 201.411 109.544 201.795 109.32C202.19 109.085 202.467 108.755 202.627 108.328V107.336H200.563C199.411 107.336 198.835 107.715 198.835 108.472C198.835 108.835 198.979 109.123 199.267 109.336C199.555 109.549 199.955 109.656 200.467 109.656ZM212.162 102.36C213.239 102.36 214.103 102.675 214.754 103.304C215.405 103.933 215.73 104.867 215.73 106.104V111H213.73V106.36C213.73 105.613 213.554 105.053 213.202 104.68C212.85 104.296 212.349 104.104 211.698 104.104C210.962 104.104 210.381 104.328 209.954 104.776C209.527 105.213 209.314 105.848 209.314 106.68V111H207.314V102.456H209.218V103.56C209.549 103.165 209.965 102.867 210.466 102.664C210.967 102.461 211.533 102.36 212.162 102.36ZM49.4279 125.8V137H47.7159L41.5399 129.416V137H39.4759V125.8H41.1879L47.3639 133.384V125.8H49.4279ZM56.197 137.112C55.333 137.112 54.5543 136.925 53.861 136.552C53.1677 136.179 52.6237 135.661 52.229 135C51.845 134.328 51.653 133.571 51.653 132.728C51.653 131.885 51.845 131.133 52.229 130.472C52.6237 129.811 53.1677 129.293 53.861 128.92C54.5543 128.547 55.333 128.36 56.197 128.36C57.0717 128.36 57.8557 128.547 58.549 128.92C59.2423 129.293 59.781 129.811 60.165 130.472C60.5597 131.133 60.757 131.885 60.757 132.728C60.757 133.571 60.5597 134.328 60.165 135C59.781 135.661 59.2423 136.179 58.549 136.552C57.8557 136.925 57.0717 137.112 56.197 137.112ZM56.197 135.4C56.933 135.4 57.541 135.155 58.021 134.664C58.501 134.173 58.741 133.528 58.741 132.728C58.741 131.928 58.501 131.283 58.021 130.792C57.541 130.301 56.933 130.056 56.197 130.056C55.461 130.056 54.853 130.301 54.373 130.792C53.9037 131.283 53.669 131.928 53.669 132.728C53.669 133.528 53.9037 134.173 54.373 134.664C54.853 135.155 55.461 135.4 56.197 135.4ZM67.9255 136.536C67.6908 136.728 67.4028 136.872 67.0615 136.968C66.7308 137.064 66.3788 137.112 66.0055 137.112C65.0668 137.112 64.3415 136.867 63.8295 136.376C63.3175 135.885 63.0615 135.171 63.0615 134.232V130.12H61.6535V128.52H63.0615V126.568H65.0615V128.52H67.3495V130.12H65.0615V134.184C65.0615 134.6 65.1628 134.92 65.3655 135.144C65.5682 135.357 65.8615 135.464 66.2455 135.464C66.6935 135.464 67.0668 135.347 67.3655 135.112L67.9255 136.536ZM76.5046 127.544V130.952H81.9126V132.712H76.5046V137H74.4246V125.8H82.6006V127.544H76.5046ZM84.3839 128.456H86.3839V137H84.3839V128.456ZM85.3919 127.048C85.0292 127.048 84.7252 126.936 84.4799 126.712C84.2345 126.477 84.1119 126.189 84.1119 125.848C84.1119 125.507 84.2345 125.224 84.4799 125C84.7252 124.765 85.0292 124.648 85.3919 124.648C85.7545 124.648 86.0585 124.76 86.3039 124.984C86.5492 125.197 86.6719 125.469 86.6719 125.8C86.6719 126.152 86.5492 126.451 86.3039 126.696C86.0692 126.931 85.7652 127.048 85.3919 127.048ZM93.9769 128.36C95.0542 128.36 95.9182 128.675 96.5689 129.304C97.2195 129.933 97.5449 130.867 97.5449 132.104V137H95.5449V132.36C95.5449 131.613 95.3689 131.053 95.0169 130.68C94.6649 130.296 94.1635 130.104 93.5129 130.104C92.7769 130.104 92.1955 130.328 91.7689 130.776C91.3422 131.213 91.1289 131.848 91.1289 132.68V137H89.1289V128.456H91.0329V129.56C91.3635 129.165 91.7795 128.867 92.2809 128.664C92.7822 128.461 93.3475 128.36 93.9769 128.36ZM108.648 125.128V137H106.728V135.896C106.397 136.301 105.987 136.605 105.496 136.808C105.016 137.011 104.483 137.112 103.896 137.112C103.075 137.112 102.333 136.931 101.672 136.568C101.021 136.205 100.509 135.693 100.136 135.032C99.7628 134.36 99.5761 133.592 99.5761 132.728C99.5761 131.864 99.7628 131.101 100.136 130.44C100.509 129.779 101.021 129.267 101.672 128.904C102.333 128.541 103.075 128.36 103.896 128.36C104.461 128.36 104.979 128.456 105.448 128.648C105.917 128.84 106.317 129.128 106.648 129.512V125.128H108.648ZM104.136 135.4C104.616 135.4 105.048 135.293 105.432 135.08C105.816 134.856 106.12 134.541 106.344 134.136C106.568 133.731 106.68 133.261 106.68 132.728C106.68 132.195 106.568 131.725 106.344 131.32C106.12 130.915 105.816 130.605 105.432 130.392C105.048 130.168 104.616 130.056 104.136 130.056C103.656 130.056 103.224 130.168 102.84 130.392C102.456 130.605 102.152 130.915 101.928 131.32C101.704 131.725 101.592 132.195 101.592 132.728C101.592 133.261 101.704 133.731 101.928 134.136C102.152 134.541 102.456 134.856 102.84 135.08C103.224 135.293 103.656 135.4 104.136 135.4ZM118.39 127.56H114.678V125.8H124.182V127.56H120.47V137H118.39V127.56ZM130.519 128.36C131.597 128.36 132.461 128.675 133.111 129.304C133.762 129.933 134.087 130.867 134.087 132.104V137H132.087V132.36C132.087 131.613 131.911 131.053 131.559 130.68C131.207 130.296 130.706 130.104 130.055 130.104C129.319 130.104 128.738 130.328 128.311 130.776C127.885 131.213 127.671 131.848 127.671 132.68V137H125.671V125.128H127.671V129.448C128.002 129.096 128.407 128.829 128.887 128.648C129.378 128.456 129.922 128.36 130.519 128.36ZM144.855 132.776C144.855 132.915 144.844 133.112 144.823 133.368H138.119C138.236 133.997 138.54 134.499 139.031 134.872C139.532 135.235 140.151 135.416 140.887 135.416C141.825 135.416 142.599 135.107 143.207 134.488L144.279 135.72C143.895 136.179 143.409 136.525 142.823 136.76C142.236 136.995 141.575 137.112 140.839 137.112C139.9 137.112 139.073 136.925 138.359 136.552C137.644 136.179 137.089 135.661 136.695 135C136.311 134.328 136.119 133.571 136.119 132.728C136.119 131.896 136.305 131.149 136.679 130.488C137.063 129.816 137.591 129.293 138.263 128.92C138.935 128.547 139.692 128.36 140.535 128.36C141.367 128.36 142.108 128.547 142.759 128.92C143.42 129.283 143.932 129.8 144.295 130.472C144.668 131.133 144.855 131.901 144.855 132.776ZM140.535 129.96C139.895 129.96 139.351 130.152 138.903 130.536C138.465 130.909 138.199 131.411 138.103 132.04H142.951C142.865 131.421 142.604 130.92 142.167 130.536C141.729 130.152 141.185 129.96 140.535 129.96ZM161.918 137L161.902 129.576L158.222 135.72H157.294L153.614 129.672V137H151.63V125.8H153.342L157.79 133.224L162.158 125.8H163.87L163.886 137H161.918ZM170.679 137.112C169.815 137.112 169.036 136.925 168.343 136.552C167.65 136.179 167.106 135.661 166.711 135C166.327 134.328 166.135 133.571 166.135 132.728C166.135 131.885 166.327 131.133 166.711 130.472C167.106 129.811 167.65 129.293 168.343 128.92C169.036 128.547 169.815 128.36 170.679 128.36C171.554 128.36 172.338 128.547 173.031 128.92C173.724 129.293 174.263 129.811 174.647 130.472C175.042 131.133 175.239 131.885 175.239 132.728C175.239 133.571 175.042 134.328 174.647 135C174.263 135.661 173.724 136.179 173.031 136.552C172.338 136.925 171.554 137.112 170.679 137.112ZM170.679 135.4C171.415 135.4 172.023 135.155 172.503 134.664C172.983 134.173 173.223 133.528 173.223 132.728C173.223 131.928 172.983 131.283 172.503 130.792C172.023 130.301 171.415 130.056 170.679 130.056C169.943 130.056 169.335 130.301 168.855 130.792C168.386 131.283 168.151 131.928 168.151 132.728C168.151 133.528 168.386 134.173 168.855 134.664C169.335 135.155 169.943 135.4 170.679 135.4ZM185.037 128.456L181.373 137H179.309L175.645 128.456H177.725L180.381 134.792L183.117 128.456H185.037ZM186.407 128.456H188.407V137H186.407V128.456ZM187.415 127.048C187.052 127.048 186.748 126.936 186.503 126.712C186.258 126.477 186.135 126.189 186.135 125.848C186.135 125.507 186.258 125.224 186.503 125C186.748 124.765 187.052 124.648 187.415 124.648C187.778 124.648 188.082 124.76 188.327 124.984C188.572 125.197 188.695 125.469 188.695 125.8C188.695 126.152 188.572 126.451 188.327 126.696C188.092 126.931 187.788 127.048 187.415 127.048ZM199.184 132.776C199.184 132.915 199.173 133.112 199.152 133.368H192.448C192.565 133.997 192.869 134.499 193.36 134.872C193.861 135.235 194.48 135.416 195.216 135.416C196.155 135.416 196.928 135.107 197.536 134.488L198.608 135.72C198.224 136.179 197.739 136.525 197.152 136.76C196.565 136.995 195.904 137.112 195.168 137.112C194.229 137.112 193.403 136.925 192.688 136.552C191.973 136.179 191.419 135.661 191.024 135C190.64 134.328 190.448 133.571 190.448 132.728C190.448 131.896 190.635 131.149 191.008 130.488C191.392 129.816 191.92 129.293 192.592 128.92C193.264 128.547 194.021 128.36 194.864 128.36C195.696 128.36 196.437 128.547 197.088 128.92C197.749 129.283 198.261 129.8 198.624 130.472C198.997 131.133 199.184 131.901 199.184 132.776ZM194.864 129.96C194.224 129.96 193.68 130.152 193.232 130.536C192.795 130.909 192.528 131.411 192.432 132.04H197.28C197.195 131.421 196.933 130.92 196.496 130.536C196.059 130.152 195.515 129.96 194.864 129.96ZM206.407 131.016C206.044 131.016 205.735 130.893 205.479 130.648C205.223 130.392 205.095 130.072 205.095 129.688C205.095 129.293 205.218 128.973 205.463 128.728C205.719 128.483 206.034 128.36 206.407 128.36C206.78 128.36 207.09 128.483 207.335 128.728C207.591 128.973 207.719 129.293 207.719 129.688C207.719 130.072 207.591 130.392 207.335 130.648C207.079 130.893 206.77 131.016 206.407 131.016ZM206.407 137.112C206.044 137.112 205.735 136.989 205.479 136.744C205.223 136.488 205.095 136.168 205.095 135.784C205.095 135.389 205.218 135.069 205.463 134.824C205.719 134.579 206.034 134.456 206.407 134.456C206.78 134.456 207.09 134.579 207.335 134.824C207.591 135.069 207.719 135.389 207.719 135.784C207.719 136.168 207.591 136.488 207.335 136.744C207.079 136.989 206.77 137.112 206.407 137.112ZM211.777 140.104C211.148 139.133 210.663 138.008 210.321 136.728C209.991 135.448 209.825 134.077 209.825 132.616C209.825 131.155 209.991 129.784 210.321 128.504C210.663 127.213 211.148 126.088 211.777 125.128H213.681C213.031 126.28 212.551 127.469 212.241 128.696C211.943 129.912 211.793 131.219 211.793 132.616C211.793 134.013 211.943 135.325 212.241 136.552C212.551 137.768 213.031 138.952 213.681 140.104H211.777Z" fill="#EBEBEF"/>
<path d="M37.4686 158.644V161.572H41.6806V162.604H37.4686V166H36.2686V157.6H42.1966V158.644H37.4686ZM43.7206 159.64H44.8726V166H43.7206V159.64ZM44.2966 158.416C44.0726 158.416 43.8846 158.344 43.7326 158.2C43.5886 158.056 43.5166 157.88 43.5166 157.672C43.5166 157.464 43.5886 157.288 43.7326 157.144C43.8846 156.992 44.0726 156.916 44.2966 156.916C44.5206 156.916 44.7046 156.988 44.8486 157.132C45.0006 157.268 45.0766 157.44 45.0766 157.648C45.0766 157.864 45.0006 158.048 44.8486 158.2C44.7046 158.344 44.5206 158.416 44.2966 158.416ZM50.5882 159.58C51.3962 159.58 52.0362 159.816 52.5082 160.288C52.9882 160.752 53.2282 161.436 53.2282 162.34V166H52.0762V162.472C52.0762 161.856 51.9282 161.392 51.6322 161.08C51.3362 160.768 50.9122 160.612 50.3602 160.612C49.7362 160.612 49.2442 160.796 48.8842 161.164C48.5242 161.524 48.3442 162.044 48.3442 162.724V166H47.1922V159.64H48.2962V160.6C48.5282 160.272 48.8402 160.02 49.2322 159.844C49.6322 159.668 50.0842 159.58 50.5882 159.58ZM61.5153 157.096V166H60.4113V164.992C60.1553 165.344 59.8313 165.612 59.4393 165.796C59.0473 165.98 58.6153 166.072 58.1433 166.072C57.5273 166.072 56.9753 165.936 56.4873 165.664C55.9993 165.392 55.6153 165.012 55.3353 164.524C55.0633 164.028 54.9273 163.46 54.9273 162.82C54.9273 162.18 55.0633 161.616 55.3353 161.128C55.6153 160.64 55.9993 160.26 56.4873 159.988C56.9753 159.716 57.5273 159.58 58.1433 159.58C58.5993 159.58 59.0193 159.668 59.4033 159.844C59.7873 160.012 60.1073 160.264 60.3633 160.6V157.096H61.5153ZM58.2393 165.064C58.6393 165.064 59.0033 164.972 59.3313 164.788C59.6593 164.596 59.9153 164.332 60.0993 163.996C60.2833 163.652 60.3753 163.26 60.3753 162.82C60.3753 162.38 60.2833 161.992 60.0993 161.656C59.9153 161.312 59.6593 161.048 59.3313 160.864C59.0033 160.68 58.6393 160.588 58.2393 160.588C57.8313 160.588 57.4633 160.68 57.1353 160.864C56.8153 161.048 56.5593 161.312 56.3673 161.656C56.1833 161.992 56.0913 162.38 56.0913 162.82C56.0913 163.26 56.1833 163.652 56.3673 163.996C56.5593 164.332 56.8153 164.596 57.1353 164.788C57.4633 164.972 57.8313 165.064 58.2393 165.064ZM72.7856 159.64L69.7016 166.636C69.4296 167.284 69.1096 167.74 68.7416 168.004C68.3816 168.268 67.9456 168.4 67.4336 168.4C67.1216 168.4 66.8176 168.348 66.5216 168.244C66.2336 168.148 65.9936 168.004 65.8016 167.812L66.2936 166.948C66.6216 167.26 67.0016 167.416 67.4336 167.416C67.7136 167.416 67.9456 167.34 68.1296 167.188C68.3216 167.044 68.4936 166.792 68.6456 166.432L68.8496 165.988L66.0416 159.64H67.2416L69.4616 164.728L71.6576 159.64H72.7856ZM76.529 166.072C75.897 166.072 75.329 165.932 74.825 165.652C74.321 165.372 73.925 164.988 73.637 164.5C73.357 164.004 73.217 163.444 73.217 162.82C73.217 162.196 73.357 161.64 73.637 161.152C73.925 160.656 74.321 160.272 74.825 160C75.329 159.72 75.897 159.58 76.529 159.58C77.161 159.58 77.725 159.72 78.221 160C78.725 160.272 79.117 160.656 79.397 161.152C79.685 161.64 79.829 162.196 79.829 162.82C79.829 163.444 79.685 164.004 79.397 164.5C79.117 164.988 78.725 165.372 78.221 165.652C77.725 165.932 77.161 166.072 76.529 166.072ZM76.529 165.064C76.937 165.064 77.301 164.972 77.621 164.788C77.949 164.596 78.205 164.332 78.389 163.996C78.573 163.652 78.665 163.26 78.665 162.82C78.665 162.38 78.573 161.992 78.389 161.656C78.205 161.312 77.949 161.048 77.621 160.864C77.301 160.68 76.937 160.588 76.529 160.588C76.121 160.588 75.753 160.68 75.425 160.864C75.105 161.048 74.849 161.312 74.657 161.656C74.473 161.992 74.381 162.38 74.381 162.82C74.381 163.26 74.473 163.652 74.657 163.996C74.849 164.332 75.105 164.596 75.425 164.788C75.753 164.972 76.121 165.064 76.529 165.064ZM87.4701 159.64V166H86.3781V165.04C86.1461 165.368 85.8381 165.624 85.4541 165.808C85.0781 165.984 84.6661 166.072 84.2181 166.072C83.3701 166.072 82.7021 165.84 82.2141 165.376C81.7261 164.904 81.4821 164.212 81.4821 163.3V159.64H82.6341V163.168C82.6341 163.784 82.7821 164.252 83.0781 164.572C83.3741 164.884 83.7981 165.04 84.3501 165.04C84.9581 165.04 85.4381 164.856 85.7901 164.488C86.1421 164.12 86.3181 163.6 86.3181 162.928V159.64H87.4701ZM90.8872 160.708C91.0872 160.34 91.3832 160.06 91.7752 159.868C92.1672 159.676 92.6432 159.58 93.2032 159.58V160.696C93.1392 160.688 93.0512 160.684 92.9392 160.684C92.3152 160.684 91.8232 160.872 91.4632 161.248C91.1112 161.616 90.9352 162.144 90.9352 162.832V166H89.7832V159.64H90.8872V160.708ZM106.124 159.58C106.924 159.58 107.556 159.812 108.02 160.276C108.492 160.74 108.728 161.428 108.728 162.34V166H107.576V162.472C107.576 161.856 107.432 161.392 107.144 161.08C106.864 160.768 106.46 160.612 105.932 160.612C105.348 160.612 104.884 160.796 104.54 161.164C104.196 161.524 104.024 162.044 104.024 162.724V166H102.872V162.472C102.872 161.856 102.728 161.392 102.44 161.08C102.16 160.768 101.756 160.612 101.228 160.612C100.644 160.612 100.18 160.796 99.8358 161.164C99.4918 161.524 99.3198 162.044 99.3198 162.724V166H98.1678V159.64H99.2718V160.588C99.5038 160.26 99.8078 160.012 100.184 159.844C100.56 159.668 100.988 159.58 101.468 159.58C101.964 159.58 102.404 159.68 102.788 159.88C103.172 160.08 103.468 160.372 103.676 160.756C103.916 160.388 104.248 160.1 104.672 159.892C105.104 159.684 105.588 159.58 106.124 159.58ZM113.727 166.072C113.095 166.072 112.527 165.932 112.023 165.652C111.519 165.372 111.123 164.988 110.835 164.5C110.555 164.004 110.415 163.444 110.415 162.82C110.415 162.196 110.555 161.64 110.835 161.152C111.123 160.656 111.519 160.272 112.023 160C112.527 159.72 113.095 159.58 113.727 159.58C114.359 159.58 114.923 159.72 115.419 160C115.923 160.272 116.315 160.656 116.595 161.152C116.883 161.64 117.027 162.196 117.027 162.82C117.027 163.444 116.883 164.004 116.595 164.5C116.315 164.988 115.923 165.372 115.419 165.652C114.923 165.932 114.359 166.072 113.727 166.072ZM113.727 165.064C114.135 165.064 114.499 164.972 114.819 164.788C115.147 164.596 115.403 164.332 115.587 163.996C115.771 163.652 115.863 163.26 115.863 162.82C115.863 162.38 115.771 161.992 115.587 161.656C115.403 161.312 115.147 161.048 114.819 160.864C114.499 160.68 114.135 160.588 113.727 160.588C113.319 160.588 112.951 160.68 112.623 160.864C112.303 161.048 112.047 161.312 111.855 161.656C111.671 161.992 111.579 162.38 111.579 162.82C111.579 163.26 111.671 163.652 111.855 163.996C112.047 164.332 112.303 164.596 112.623 164.788C112.951 164.972 113.319 165.064 113.727 165.064ZM124.192 159.64L121.408 166H120.232L117.448 159.64H118.648L120.832 164.74L123.064 159.64H124.192ZM125.387 159.64H126.539V166H125.387V159.64ZM125.963 158.416C125.739 158.416 125.551 158.344 125.399 158.2C125.255 158.056 125.183 157.88 125.183 157.672C125.183 157.464 125.255 157.288 125.399 157.144C125.551 156.992 125.739 156.916 125.963 156.916C126.187 156.916 126.371 156.988 126.515 157.132C126.667 157.268 126.743 157.44 126.743 157.648C126.743 157.864 126.667 158.048 126.515 158.2C126.371 158.344 126.187 158.416 125.963 158.416ZM134.607 162.856C134.607 162.944 134.599 163.06 134.583 163.204H129.423C129.495 163.764 129.739 164.216 130.155 164.56C130.579 164.896 131.103 165.064 131.727 165.064C132.487 165.064 133.099 164.808 133.563 164.296L134.199 165.04C133.911 165.376 133.551 165.632 133.119 165.808C132.695 165.984 132.219 166.072 131.691 166.072C131.019 166.072 130.423 165.936 129.903 165.664C129.383 165.384 128.979 164.996 128.691 164.5C128.411 164.004 128.271 163.444 128.271 162.82C128.271 162.204 128.407 161.648 128.679 161.152C128.959 160.656 129.339 160.272 129.819 160C130.307 159.72 130.855 159.58 131.463 159.58C132.071 159.58 132.611 159.72 133.083 160C133.563 160.272 133.935 160.656 134.199 161.152C134.471 161.648 134.607 162.216 134.607 162.856ZM131.463 160.552C130.911 160.552 130.447 160.72 130.071 161.056C129.703 161.392 129.487 161.832 129.423 162.376H133.503C133.439 161.84 133.219 161.404 132.843 161.068C132.475 160.724 132.015 160.552 131.463 160.552ZM143.041 159.58C143.657 159.58 144.209 159.716 144.697 159.988C145.185 160.26 145.565 160.64 145.837 161.128C146.117 161.616 146.257 162.18 146.257 162.82C146.257 163.46 146.117 164.028 145.837 164.524C145.565 165.012 145.185 165.392 144.697 165.664C144.209 165.936 143.657 166.072 143.041 166.072C142.569 166.072 142.137 165.98 141.745 165.796C141.353 165.612 141.029 165.344 140.773 164.992V166H139.669V157.096H140.821V160.6C141.077 160.264 141.397 160.012 141.781 159.844C142.165 159.668 142.585 159.58 143.041 159.58ZM142.945 165.064C143.353 165.064 143.717 164.972 144.037 164.788C144.365 164.596 144.621 164.332 144.805 163.996C144.997 163.652 145.093 163.26 145.093 162.82C145.093 162.38 144.997 161.992 144.805 161.656C144.621 161.312 144.365 161.048 144.037 160.864C143.717 160.68 143.353 160.588 142.945 160.588C142.545 160.588 142.181 160.68 141.853 160.864C141.525 161.048 141.269 161.312 141.085 161.656C140.901 161.992 140.809 162.38 140.809 162.82C140.809 163.26 140.901 163.652 141.085 163.996C141.269 164.332 141.525 164.596 141.853 164.788C142.181 164.972 142.545 165.064 142.945 165.064ZM153.421 159.64L150.337 166.636C150.065 167.284 149.745 167.74 149.377 168.004C149.017 168.268 148.581 168.4 148.069 168.4C147.757 168.4 147.453 168.348 147.157 168.244C146.869 168.148 146.629 168.004 146.437 167.812L146.929 166.948C147.257 167.26 147.637 167.416 148.069 167.416C148.349 167.416 148.581 167.34 148.765 167.188C148.957 167.044 149.129 166.792 149.281 166.432L149.485 165.988L146.677 159.64H147.877L150.097 164.728L152.293 159.64H153.421ZM159.795 158.644H156.915V157.6H163.863V158.644H160.983V166H159.795V158.644ZM170.351 159.64L167.267 166.636C166.995 167.284 166.675 167.74 166.307 168.004C165.947 168.268 165.511 168.4 164.999 168.4C164.687 168.4 164.383 168.348 164.087 168.244C163.799 168.148 163.559 168.004 163.367 167.812L163.859 166.948C164.187 167.26 164.567 167.416 164.999 167.416C165.279 167.416 165.511 167.34 165.695 167.188C165.887 167.044 166.059 166.792 166.211 166.432L166.415 165.988L163.607 159.64H164.807L167.027 164.728L169.223 159.64H170.351ZM174.918 159.58C175.534 159.58 176.086 159.716 176.574 159.988C177.062 160.26 177.442 160.64 177.714 161.128C177.994 161.616 178.134 162.18 178.134 162.82C178.134 163.46 177.994 164.028 177.714 164.524C177.442 165.012 177.062 165.392 176.574 165.664C176.086 165.936 175.534 166.072 174.918 166.072C174.462 166.072 174.042 165.984 173.658 165.808C173.282 165.632 172.962 165.376 172.698 165.04V168.328H171.546V159.64H172.65V160.648C172.906 160.296 173.23 160.032 173.622 159.856C174.014 159.672 174.446 159.58 174.918 159.58ZM174.822 165.064C175.23 165.064 175.594 164.972 175.914 164.788C176.242 164.596 176.498 164.332 176.682 163.996C176.874 163.652 176.97 163.26 176.97 162.82C176.97 162.38 176.874 161.992 176.682 161.656C176.498 161.312 176.242 161.048 175.914 160.864C175.594 160.68 175.23 160.588 174.822 160.588C174.422 160.588 174.058 160.684 173.73 160.876C173.41 161.06 173.154 161.32 172.962 161.656C172.778 161.992 172.686 162.38 172.686 162.82C172.686 163.26 172.778 163.652 172.962 163.996C173.146 164.332 173.402 164.596 173.73 164.788C174.058 164.972 174.422 165.064 174.822 165.064ZM185.594 162.856C185.594 162.944 185.586 163.06 185.57 163.204H180.41C180.482 163.764 180.726 164.216 181.142 164.56C181.566 164.896 182.09 165.064 182.714 165.064C183.474 165.064 184.086 164.808 184.55 164.296L185.186 165.04C184.898 165.376 184.538 165.632 184.106 165.808C183.682 165.984 183.206 166.072 182.678 166.072C182.006 166.072 181.41 165.936 180.89 165.664C180.37 165.384 179.966 164.996 179.678 164.5C179.398 164.004 179.258 163.444 179.258 162.82C179.258 162.204 179.394 161.648 179.666 161.152C179.946 160.656 180.326 160.272 180.806 160C181.294 159.72 181.842 159.58 182.45 159.58C183.058 159.58 183.598 159.72 184.07 160C184.55 160.272 184.922 160.656 185.186 161.152C185.458 161.648 185.594 162.216 185.594 162.856ZM182.45 160.552C181.898 160.552 181.434 160.72 181.058 161.056C180.69 161.392 180.474 161.832 180.41 162.376H184.49C184.426 161.84 184.206 161.404 183.83 161.068C183.462 160.724 183.002 160.552 182.45 160.552ZM194.232 165.628C194.064 165.772 193.856 165.884 193.608 165.964C193.36 166.036 193.104 166.072 192.84 166.072C192.2 166.072 191.704 165.9 191.352 165.556C191 165.212 190.824 164.72 190.824 164.08V160.588H189.744V159.64H190.824V158.248H191.976V159.64H193.8V160.588H191.976V164.032C191.976 164.376 192.06 164.64 192.228 164.824C192.404 165.008 192.652 165.1 192.972 165.1C193.324 165.1 193.624 165 193.872 164.8L194.232 165.628ZM195.745 159.64H196.897V166H195.745V159.64ZM196.321 158.416C196.097 158.416 195.909 158.344 195.757 158.2C195.613 158.056 195.541 157.88 195.541 157.672C195.541 157.464 195.613 157.288 195.757 157.144C195.909 156.992 196.097 156.916 196.321 156.916C196.545 156.916 196.729 156.988 196.873 157.132C197.025 157.268 197.101 157.44 197.101 157.648C197.101 157.864 197.025 158.048 196.873 158.2C196.729 158.344 196.545 158.416 196.321 158.416ZM202.793 165.628C202.625 165.772 202.417 165.884 202.169 165.964C201.921 166.036 201.665 166.072 201.401 166.072C200.761 166.072 200.265 165.9 199.913 165.556C199.561 165.212 199.385 164.72 199.385 164.08V160.588H198.305V159.64H199.385V158.248H200.537V159.64H202.361V160.588H200.537V164.032C200.537 164.376 200.621 164.64 200.789 164.824C200.965 165.008 201.213 165.1 201.533 165.1C201.885 165.1 202.185 165 202.433 164.8L202.793 165.628ZM204.305 157.096H205.457V166H204.305V157.096ZM213.525 162.856C213.525 162.944 213.517 163.06 213.501 163.204H208.341C208.413 163.764 208.657 164.216 209.073 164.56C209.497 164.896 210.021 165.064 210.645 165.064C211.405 165.064 212.017 164.808 212.481 164.296L213.117 165.04C212.829 165.376 212.469 165.632 212.037 165.808C211.613 165.984 211.137 166.072 210.609 166.072C209.937 166.072 209.341 165.936 208.821 165.664C208.301 165.384 207.897 164.996 207.609 164.5C207.329 164.004 207.189 163.444 207.189 162.82C207.189 162.204 207.325 161.648 207.597 161.152C207.877 160.656 208.257 160.272 208.737 160C209.225 159.72 209.773 159.58 210.381 159.58C210.989 159.58 211.529 159.72 212.001 160C212.481 160.272 212.853 160.656 213.117 161.152C213.389 161.648 213.525 162.216 213.525 162.856ZM210.381 160.552C209.829 160.552 209.365 160.72 208.989 161.056C208.621 161.392 208.405 161.832 208.341 162.376H212.421C212.357 161.84 212.137 161.404 211.761 161.068C211.393 160.724 210.933 160.552 210.381 160.552ZM215.533 164.428C215.757 164.428 215.941 164.508 216.085 164.668C216.237 164.82 216.313 165.012 216.313 165.244C216.313 165.364 216.297 165.48 216.265 165.592C216.241 165.704 216.189 165.876 216.109 166.108L215.545 167.776H214.789L215.233 165.988C215.081 165.932 214.957 165.84 214.861 165.712C214.773 165.576 214.729 165.42 214.729 165.244C214.729 165.004 214.805 164.808 214.957 164.656C215.109 164.504 215.301 164.428 215.533 164.428ZM65.4444 185.072C64.7964 185.072 64.2164 184.932 63.7044 184.652C63.2004 184.372 62.8044 183.988 62.5164 183.5C62.2284 183.004 62.0844 182.444 62.0844 181.82C62.0844 181.196 62.2284 180.64 62.5164 180.152C62.8044 179.656 63.2004 179.272 63.7044 179C64.2164 178.72 64.7964 178.58 65.4444 178.58C66.0204 178.58 66.5324 178.696 66.9804 178.928C67.4364 179.16 67.7884 179.496 68.0364 179.936L67.1604 180.5C66.9604 180.196 66.7124 179.968 66.4164 179.816C66.1204 179.664 65.7924 179.588 65.4324 179.588C65.0164 179.588 64.6404 179.68 64.3044 179.864C63.9764 180.048 63.7164 180.312 63.5244 180.656C63.3404 180.992 63.2484 181.38 63.2484 181.82C63.2484 182.268 63.3404 182.664 63.5244 183.008C63.7164 183.344 63.9764 183.604 64.3044 183.788C64.6404 183.972 65.0164 184.064 65.4324 184.064C65.7924 184.064 66.1204 183.988 66.4164 183.836C66.7124 183.684 66.9604 183.456 67.1604 183.152L68.0364 183.704C67.7884 184.144 67.4364 184.484 66.9804 184.724C66.5324 184.956 66.0204 185.072 65.4444 185.072ZM71.9639 178.58C72.8439 178.58 73.5159 178.796 73.9799 179.228C74.4519 179.66 74.6879 180.304 74.6879 181.16V185H73.5959V184.16C73.4039 184.456 73.1279 184.684 72.7679 184.844C72.4159 184.996 71.9959 185.072 71.5079 185.072C70.7959 185.072 70.2239 184.9 69.7919 184.556C69.3679 184.212 69.1559 183.76 69.1559 183.2C69.1559 182.64 69.3599 182.192 69.7679 181.856C70.1759 181.512 70.8239 181.34 71.7119 181.34H73.5359V181.112C73.5359 180.616 73.3919 180.236 73.1039 179.972C72.8159 179.708 72.3919 179.576 71.8319 179.576C71.4559 179.576 71.0879 179.64 70.7279 179.768C70.3679 179.888 70.0639 180.052 69.8159 180.26L69.3359 179.396C69.6639 179.132 70.0559 178.932 70.5119 178.796C70.9679 178.652 71.4519 178.58 71.9639 178.58ZM71.6999 184.184C72.1399 184.184 72.5199 184.088 72.8399 183.896C73.1599 183.696 73.3919 183.416 73.5359 183.056V182.168H71.7599C70.7839 182.168 70.2959 182.496 70.2959 183.152C70.2959 183.472 70.4199 183.724 70.6679 183.908C70.9159 184.092 71.2599 184.184 71.6999 184.184ZM80.5157 184.628C80.3477 184.772 80.1397 184.884 79.8917 184.964C79.6437 185.036 79.3877 185.072 79.1237 185.072C78.4837 185.072 77.9877 184.9 77.6357 184.556C77.2837 184.212 77.1077 183.72 77.1077 183.08V179.588H76.0277V178.64H77.1077V177.248H78.2597V178.64H80.0837V179.588H78.2597V183.032C78.2597 183.376 78.3437 183.64 78.5117 183.824C78.6877 184.008 78.9357 184.1 79.2557 184.1C79.6077 184.1 79.9077 184 80.1557 183.8L80.5157 184.628ZM87.5655 181.856C87.5655 181.944 87.5575 182.06 87.5415 182.204H82.3815C82.4535 182.764 82.6975 183.216 83.1135 183.56C83.5375 183.896 84.0615 184.064 84.6855 184.064C85.4455 184.064 86.0575 183.808 86.5215 183.296L87.1575 184.04C86.8695 184.376 86.5095 184.632 86.0775 184.808C85.6535 184.984 85.1775 185.072 84.6495 185.072C83.9775 185.072 83.3815 184.936 82.8615 184.664C82.3415 184.384 81.9375 183.996 81.6495 183.5C81.3695 183.004 81.2295 182.444 81.2295 181.82C81.2295 181.204 81.3655 180.648 81.6375 180.152C81.9175 179.656 82.2975 179.272 82.7775 179C83.2655 178.72 83.8135 178.58 84.4215 178.58C85.0295 178.58 85.5695 178.72 86.0415 179C86.5215 179.272 86.8935 179.656 87.1575 180.152C87.4295 180.648 87.5655 181.216 87.5655 181.856ZM84.4215 179.552C83.8695 179.552 83.4055 179.72 83.0295 180.056C82.6615 180.392 82.4455 180.832 82.3815 181.376H86.4615C86.3975 180.84 86.1775 180.404 85.8015 180.068C85.4335 179.724 84.9735 179.552 84.4215 179.552ZM95.3692 178.64V184.136C95.3692 185.248 95.0932 186.068 94.5412 186.596C93.9892 187.132 93.1652 187.4 92.0692 187.4C91.4692 187.4 90.8972 187.316 90.3532 187.148C89.8092 186.988 89.3692 186.756 89.0332 186.452L89.5852 185.564C89.8812 185.82 90.2452 186.02 90.6772 186.164C91.1172 186.316 91.5692 186.392 92.0332 186.392C92.7772 186.392 93.3252 186.216 93.6772 185.864C94.0372 185.512 94.2172 184.976 94.2172 184.256V183.752C93.9452 184.08 93.6092 184.328 93.2092 184.496C92.8172 184.656 92.3892 184.736 91.9252 184.736C91.3172 184.736 90.7652 184.608 90.2692 184.352C89.7812 184.088 89.3972 183.724 89.1172 183.26C88.8372 182.788 88.6972 182.252 88.6972 181.652C88.6972 181.052 88.8372 180.52 89.1172 180.056C89.3972 179.584 89.7812 179.22 90.2692 178.964C90.7652 178.708 91.3172 178.58 91.9252 178.58C92.4052 178.58 92.8492 178.668 93.2572 178.844C93.6732 179.02 94.0132 179.28 94.2772 179.624V178.64H95.3692ZM92.0572 183.728C92.4732 183.728 92.8452 183.64 93.1732 183.464C93.5092 183.288 93.7692 183.044 93.9532 182.732C94.1452 182.412 94.2412 182.052 94.2412 181.652C94.2412 181.036 94.0372 180.54 93.6292 180.164C93.2212 179.78 92.6972 179.588 92.0572 179.588C91.4092 179.588 90.8812 179.78 90.4732 180.164C90.0652 180.54 89.8612 181.036 89.8612 181.652C89.8612 182.052 89.9532 182.412 90.1372 182.732C90.3292 183.044 90.5892 183.288 90.9172 183.464C91.2532 183.64 91.6332 183.728 92.0572 183.728ZM100.414 185.072C99.7824 185.072 99.2144 184.932 98.7104 184.652C98.2064 184.372 97.8104 183.988 97.5224 183.5C97.2424 183.004 97.1024 182.444 97.1024 181.82C97.1024 181.196 97.2424 180.64 97.5224 180.152C97.8104 179.656 98.2064 179.272 98.7104 179C99.2144 178.72 99.7824 178.58 100.414 178.58C101.046 178.58 101.61 178.72 102.106 179C102.61 179.272 103.002 179.656 103.282 180.152C103.57 180.64 103.714 181.196 103.714 181.82C103.714 182.444 103.57 183.004 103.282 183.5C103.002 183.988 102.61 184.372 102.106 184.652C101.61 184.932 101.046 185.072 100.414 185.072ZM100.414 184.064C100.822 184.064 101.186 183.972 101.506 183.788C101.834 183.596 102.09 183.332 102.274 182.996C102.458 182.652 102.55 182.26 102.55 181.82C102.55 181.38 102.458 180.992 102.274 180.656C102.09 180.312 101.834 180.048 101.506 179.864C101.186 179.68 100.822 179.588 100.414 179.588C100.006 179.588 99.6384 179.68 99.3104 179.864C98.9904 180.048 98.7344 180.312 98.5424 180.656C98.3584 180.992 98.2664 181.38 98.2664 181.82C98.2664 182.26 98.3584 182.652 98.5424 182.996C98.7344 183.332 98.9904 183.596 99.3104 183.788C99.6384 183.972 100.006 184.064 100.414 184.064ZM106.532 179.708C106.732 179.34 107.028 179.06 107.42 178.868C107.812 178.676 108.288 178.58 108.848 178.58V179.696C108.784 179.688 108.696 179.684 108.584 179.684C107.96 179.684 107.468 179.872 107.108 180.248C106.756 180.616 106.58 181.144 106.58 181.832V185H105.428V178.64H106.532V179.708ZM110.387 178.64H111.539V185H110.387V178.64ZM110.963 177.416C110.739 177.416 110.551 177.344 110.399 177.2C110.255 177.056 110.183 176.88 110.183 176.672C110.183 176.464 110.255 176.288 110.399 176.144C110.551 175.992 110.739 175.916 110.963 175.916C111.187 175.916 111.371 175.988 111.515 176.132C111.667 176.268 111.743 176.44 111.743 176.648C111.743 176.864 111.667 177.048 111.515 177.2C111.371 177.344 111.187 177.416 110.963 177.416ZM119.607 181.856C119.607 181.944 119.599 182.06 119.583 182.204H114.423C114.495 182.764 114.739 183.216 115.155 183.56C115.579 183.896 116.103 184.064 116.727 184.064C117.487 184.064 118.099 183.808 118.563 183.296L119.199 184.04C118.911 184.376 118.551 184.632 118.119 184.808C117.695 184.984 117.219 185.072 116.691 185.072C116.019 185.072 115.423 184.936 114.903 184.664C114.383 184.384 113.979 183.996 113.691 183.5C113.411 183.004 113.271 182.444 113.271 181.82C113.271 181.204 113.407 180.648 113.679 180.152C113.959 179.656 114.339 179.272 114.819 179C115.307 178.72 115.855 178.58 116.463 178.58C117.071 178.58 117.611 178.72 118.083 179C118.563 179.272 118.935 179.656 119.199 180.152C119.471 180.648 119.607 181.216 119.607 181.856ZM116.463 179.552C115.911 179.552 115.447 179.72 115.071 180.056C114.703 180.392 114.487 180.832 114.423 181.376H118.503C118.439 180.84 118.219 180.404 117.843 180.068C117.475 179.724 117.015 179.552 116.463 179.552ZM123.151 185.072C122.631 185.072 122.131 185.004 121.651 184.868C121.171 184.724 120.795 184.544 120.523 184.328L121.003 183.416C121.283 183.616 121.623 183.776 122.023 183.896C122.423 184.016 122.827 184.076 123.235 184.076C124.243 184.076 124.747 183.788 124.747 183.212C124.747 183.02 124.679 182.868 124.543 182.756C124.407 182.644 124.235 182.564 124.027 182.516C123.827 182.46 123.539 182.4 123.163 182.336C122.651 182.256 122.231 182.164 121.903 182.06C121.583 181.956 121.307 181.78 121.075 181.532C120.843 181.284 120.727 180.936 120.727 180.488C120.727 179.912 120.967 179.452 121.447 179.108C121.927 178.756 122.571 178.58 123.379 178.58C123.803 178.58 124.227 178.632 124.651 178.736C125.075 178.84 125.423 178.98 125.695 179.156L125.203 180.068C124.683 179.732 124.071 179.564 123.367 179.564C122.879 179.564 122.507 179.644 122.251 179.804C121.995 179.964 121.867 180.176 121.867 180.44C121.867 180.648 121.939 180.812 122.083 180.932C122.227 181.052 122.403 181.14 122.611 181.196C122.827 181.252 123.127 181.316 123.511 181.388C124.023 181.476 124.435 181.572 124.747 181.676C125.067 181.772 125.339 181.94 125.563 182.18C125.787 182.42 125.899 182.756 125.899 183.188C125.899 183.764 125.651 184.224 125.155 184.568C124.667 184.904 123.999 185.072 123.151 185.072ZM127.746 183.428C127.97 183.428 128.154 183.508 128.298 183.668C128.45 183.82 128.526 184.012 128.526 184.244C128.526 184.364 128.51 184.48 128.478 184.592C128.454 184.704 128.402 184.876 128.322 185.108L127.758 186.776H127.002L127.446 184.988C127.294 184.932 127.17 184.84 127.074 184.712C126.986 184.576 126.942 184.42 126.942 184.244C126.942 184.004 127.018 183.808 127.17 183.656C127.322 183.504 127.514 183.428 127.746 183.428ZM139.268 178.64L136.184 185.636C135.912 186.284 135.592 186.74 135.224 187.004C134.864 187.268 134.428 187.4 133.916 187.4C133.604 187.4 133.3 187.348 133.004 187.244C132.716 187.148 132.476 187.004 132.284 186.812L132.776 185.948C133.104 186.26 133.484 186.416 133.916 186.416C134.196 186.416 134.428 186.34 134.612 186.188C134.804 186.044 134.976 185.792 135.128 185.432L135.332 184.988L132.524 178.64H133.724L135.944 183.728L138.14 178.64H139.268ZM146.035 181.856C146.035 181.944 146.027 182.06 146.011 182.204H140.851C140.923 182.764 141.167 183.216 141.583 183.56C142.007 183.896 142.531 184.064 143.155 184.064C143.915 184.064 144.527 183.808 144.991 183.296L145.627 184.04C145.339 184.376 144.979 184.632 144.547 184.808C144.123 184.984 143.647 185.072 143.119 185.072C142.447 185.072 141.851 184.936 141.331 184.664C140.811 184.384 140.407 183.996 140.119 183.5C139.839 183.004 139.699 182.444 139.699 181.82C139.699 181.204 139.835 180.648 140.107 180.152C140.387 179.656 140.767 179.272 141.247 179C141.735 178.72 142.283 178.58 142.891 178.58C143.499 178.58 144.039 178.72 144.511 179C144.991 179.272 145.363 179.656 145.627 180.152C145.899 180.648 146.035 181.216 146.035 181.856ZM142.891 179.552C142.339 179.552 141.875 179.72 141.499 180.056C141.131 180.392 140.915 180.832 140.851 181.376H144.931C144.867 180.84 144.647 180.404 144.271 180.068C143.903 179.724 143.443 179.552 142.891 179.552ZM149.895 178.58C150.775 178.58 151.447 178.796 151.911 179.228C152.383 179.66 152.619 180.304 152.619 181.16V185H151.527V184.16C151.335 184.456 151.059 184.684 150.699 184.844C150.347 184.996 149.927 185.072 149.439 185.072C148.727 185.072 148.155 184.9 147.723 184.556C147.299 184.212 147.087 183.76 147.087 183.2C147.087 182.64 147.291 182.192 147.699 181.856C148.107 181.512 148.755 181.34 149.643 181.34H151.467V181.112C151.467 180.616 151.323 180.236 151.035 179.972C150.747 179.708 150.323 179.576 149.763 179.576C149.387 179.576 149.019 179.64 148.659 179.768C148.299 179.888 147.995 180.052 147.747 180.26L147.267 179.396C147.595 179.132 147.987 178.932 148.443 178.796C148.899 178.652 149.383 178.58 149.895 178.58ZM149.631 184.184C150.071 184.184 150.451 184.088 150.771 183.896C151.091 183.696 151.323 183.416 151.467 183.056V182.168H149.691C148.715 182.168 148.227 182.496 148.227 183.152C148.227 183.472 148.351 183.724 148.599 183.908C148.847 184.092 149.191 184.184 149.631 184.184ZM155.975 179.708C156.175 179.34 156.471 179.06 156.863 178.868C157.255 178.676 157.731 178.58 158.291 178.58V179.696C158.227 179.688 158.139 179.684 158.027 179.684C157.403 179.684 156.911 179.872 156.551 180.248C156.199 180.616 156.023 181.144 156.023 181.832V185H154.871V178.64H155.975V179.708ZM161.702 185.072C161.182 185.072 160.682 185.004 160.202 184.868C159.722 184.724 159.346 184.544 159.074 184.328L159.554 183.416C159.834 183.616 160.174 183.776 160.574 183.896C160.974 184.016 161.378 184.076 161.786 184.076C162.794 184.076 163.298 183.788 163.298 183.212C163.298 183.02 163.23 182.868 163.094 182.756C162.958 182.644 162.786 182.564 162.578 182.516C162.378 182.46 162.09 182.4 161.714 182.336C161.202 182.256 160.782 182.164 160.454 182.06C160.134 181.956 159.858 181.78 159.626 181.532C159.394 181.284 159.278 180.936 159.278 180.488C159.278 179.912 159.518 179.452 159.998 179.108C160.478 178.756 161.122 178.58 161.93 178.58C162.354 178.58 162.778 178.632 163.202 178.736C163.626 178.84 163.974 178.98 164.246 179.156L163.754 180.068C163.234 179.732 162.622 179.564 161.918 179.564C161.43 179.564 161.058 179.644 160.802 179.804C160.546 179.964 160.418 180.176 160.418 180.44C160.418 180.648 160.49 180.812 160.634 180.932C160.778 181.052 160.954 181.14 161.162 181.196C161.378 181.252 161.678 181.316 162.062 181.388C162.574 181.476 162.986 181.572 163.298 181.676C163.618 181.772 163.89 181.94 164.114 182.18C164.338 182.42 164.45 182.756 164.45 183.188C164.45 183.764 164.202 184.224 163.706 184.568C163.218 184.904 162.55 185.072 161.702 185.072ZM166.297 183.428C166.521 183.428 166.705 183.508 166.849 183.668C167.001 183.82 167.077 184.012 167.077 184.244C167.077 184.364 167.061 184.48 167.029 184.592C167.005 184.704 166.953 184.876 166.873 185.108L166.309 186.776H165.553L165.997 184.988C165.845 184.932 165.721 184.84 165.625 184.712C165.537 184.576 165.493 184.42 165.493 184.244C165.493 184.004 165.569 183.808 165.721 183.656C165.873 183.504 166.065 183.428 166.297 183.428ZM177.939 181.856C177.939 181.944 177.931 182.06 177.915 182.204H172.755C172.827 182.764 173.071 183.216 173.487 183.56C173.911 183.896 174.435 184.064 175.059 184.064C175.819 184.064 176.431 183.808 176.895 183.296L177.531 184.04C177.243 184.376 176.883 184.632 176.451 184.808C176.027 184.984 175.551 185.072 175.023 185.072C174.351 185.072 173.755 184.936 173.235 184.664C172.715 184.384 172.311 183.996 172.023 183.5C171.743 183.004 171.603 182.444 171.603 181.82C171.603 181.204 171.739 180.648 172.011 180.152C172.291 179.656 172.671 179.272 173.151 179C173.639 178.72 174.187 178.58 174.795 178.58C175.403 178.58 175.943 178.72 176.415 179C176.895 179.272 177.267 179.656 177.531 180.152C177.803 180.648 177.939 181.216 177.939 181.856ZM174.795 179.552C174.243 179.552 173.779 179.72 173.403 180.056C173.035 180.392 172.819 180.832 172.755 181.376H176.835C176.771 180.84 176.551 180.404 176.175 180.068C175.807 179.724 175.347 179.552 174.795 179.552ZM183.234 184.628C183.066 184.772 182.858 184.884 182.61 184.964C182.362 185.036 182.106 185.072 181.842 185.072C181.202 185.072 180.706 184.9 180.354 184.556C180.002 184.212 179.826 183.72 179.826 183.08V179.588H178.746V178.64H179.826V177.248H180.978V178.64H182.802V179.588H180.978V183.032C180.978 183.376 181.062 183.64 181.23 183.824C181.406 184.008 181.654 184.1 181.974 184.1C182.326 184.1 182.626 184 182.874 183.8L183.234 184.628ZM187.308 185.072C186.66 185.072 186.08 184.932 185.568 184.652C185.064 184.372 184.668 183.988 184.38 183.5C184.092 183.004 183.948 182.444 183.948 181.82C183.948 181.196 184.092 180.64 184.38 180.152C184.668 179.656 185.064 179.272 185.568 179C186.08 178.72 186.66 178.58 187.308 178.58C187.884 178.58 188.396 178.696 188.844 178.928C189.3 179.16 189.652 179.496 189.9 179.936L189.024 180.5C188.824 180.196 188.576 179.968 188.28 179.816C187.984 179.664 187.656 179.588 187.296 179.588C186.88 179.588 186.504 179.68 186.168 179.864C185.84 180.048 185.58 180.312 185.388 180.656C185.204 180.992 185.112 181.38 185.112 181.82C185.112 182.268 185.204 182.664 185.388 183.008C185.58 183.344 185.84 183.604 186.168 183.788C186.504 183.972 186.88 184.064 187.296 184.064C187.656 184.064 187.984 183.988 188.28 183.836C188.576 183.684 188.824 183.456 189.024 183.152L189.9 183.704C189.652 184.144 189.3 184.484 188.844 184.724C188.396 184.956 187.884 185.072 187.308 185.072Z" fill="#92929D"/>
<defs>
<clipPath id="clip0_127_1701">
<rect width="76" height="76" fill="white" transform="translate(88)"/>
</clipPath>
</defs>
</svg>
